<svg xmlns="http://www.w3.org/2000/svg" viewBox="0 0 200 200">
  <defs>
    <radialGradient id="bg2" cx="50%" cy="40%" r="65%">
      <stop offset="0%" stop-color="#2e7d32"/>
      <stop offset="100%" stop-color="#1b5e20"/>
    </radialGradient>
  </defs>
  <circle cx="100" cy="100" r="98" fill="url(#bg2)" stroke="#fdd835" stroke-width="4"/>
  <circle cx="100" cy="100" r="88" fill="none" stroke="#fdd835" stroke-width="1.5" stroke-dasharray="4 3"/>
  <!-- Book symbol -->
  <rect x="72" y="72" width="56" height="42" rx="3" fill="none" stroke="#fdd835" stroke-width="3"/>
  <line x1="100" y1="72" x2="100" y2="114" stroke="#fdd835" stroke-width="2"/>
  <rect x="76" y="78" width="20" height="3" rx="1" fill="#fdd835" opacity="0.7"/>
  <rect x="76" y="85" width="18" height="3" rx="1" fill="#fdd835" opacity="0.7"/>
  <rect x="76" y="92" width="20" height="3" rx="1" fill="#fdd835" opacity="0.7"/>
  <rect x="104" y="78" width="20" height="3" rx="1" fill="#fdd835" opacity="0.7"/>
  <rect x="104" y="85" width="18" height="3" rx="1" fill="#fdd835" opacity="0.7"/>
  <rect x="104" y="92" width="20" height="3" rx="1" fill="#fdd835" opacity="0.7"/>
  <!-- Crescent moon (Islamic) -->
  <path d="M91 58 Q100 50 109 58 Q102 54 94 58Z" fill="#fdd835"/>
  <circle cx="104" cy="54" r="3" fill="#fdd835"/>
  <!-- Base -->
  <rect x="68" y="120" width="64" height="3" rx="1" fill="#fdd835"/>
  <text x="100" y="140" text-anchor="middle" font-family="Arial, sans-serif" font-size="9" font-weight="bold" fill="#ffffff" letter-spacing="0.3">UNIVERSITAS ISLAM</text>
  <text x="100" y="155" text-anchor="middle" font-family="Arial, sans-serif" font-size="9" font-weight="bold" fill="#fdd835" letter-spacing="0.3">MAKASSAR</text>
</svg>
